<mxfile host="Electron" agent="Mozilla/5.0 (X11; Linux x86_64) AppleWebKit/537.36 (KHTML, like Gecko) draw.io/28.0.4 Chrome/138.0.7204.97 Electron/37.2.1 Safari/537.36" version="28.0.4">
  <diagram name="Page-1" id="YmQrTB8R5tRrO9PPgJhS">
    <mxGraphModel dx="2014" dy="1088" grid="1" gridSize="10" guides="1" tooltips="1" connect="1" arrows="1" fold="1" page="1" pageScale="1" pageWidth="850" pageHeight="1100" math="0" shadow="0">
      <root>
        <mxCell id="0" />
        <mxCell id="1" parent="0" />
        <mxCell id="aV43KR5i9FkxNKnWvNGm-17" style="edgeStyle=orthogonalEdgeStyle;rounded=0;orthogonalLoop=1;jettySize=auto;html=1;entryX=0;entryY=0.5;entryDx=0;entryDy=0;" edge="1" parent="1" source="pPDv9j4kRNzSoTvntn2N-1" target="pPDv9j4kRNzSoTvntn2N-16">
          <mxGeometry relative="1" as="geometry" />
        </mxCell>
        <mxCell id="pPDv9j4kRNzSoTvntn2N-1" value="Оператор кол-центра" style="shape=umlActor;verticalLabelPosition=bottom;verticalAlign=top;html=1;outlineConnect=0;" parent="1" vertex="1">
          <mxGeometry x="-190" y="550" width="30" height="60" as="geometry" />
        </mxCell>
        <mxCell id="aV43KR5i9FkxNKnWvNGm-18" style="edgeStyle=orthogonalEdgeStyle;rounded=0;orthogonalLoop=1;jettySize=auto;html=1;entryX=0.5;entryY=0.5;entryDx=0;entryDy=0;entryPerimeter=0;" edge="1" parent="1" source="pPDv9j4kRNzSoTvntn2N-2" target="pPDv9j4kRNzSoTvntn2N-1">
          <mxGeometry relative="1" as="geometry">
            <Array as="points">
              <mxPoint x="-175" y="580" />
            </Array>
          </mxGeometry>
        </mxCell>
        <mxCell id="aV43KR5i9FkxNKnWvNGm-25" style="edgeStyle=orthogonalEdgeStyle;rounded=0;orthogonalLoop=1;jettySize=auto;html=1;exitX=0.5;exitY=0.5;exitDx=0;exitDy=0;exitPerimeter=0;entryX=0;entryY=0.5;entryDx=0;entryDy=0;" edge="1" parent="1" source="pPDv9j4kRNzSoTvntn2N-2" target="aV43KR5i9FkxNKnWvNGm-24">
          <mxGeometry relative="1" as="geometry">
            <Array as="points">
              <mxPoint x="-350" y="580" />
              <mxPoint x="-350" y="430" />
            </Array>
          </mxGeometry>
        </mxCell>
        <mxCell id="pPDv9j4kRNzSoTvntn2N-2" value="Клиент" style="shape=umlActor;verticalLabelPosition=bottom;verticalAlign=top;html=1;outlineConnect=0;" parent="1" vertex="1">
          <mxGeometry x="-425" y="550" width="30" height="60" as="geometry" />
        </mxCell>
        <mxCell id="aV43KR5i9FkxNKnWvNGm-29" style="edgeStyle=orthogonalEdgeStyle;rounded=0;orthogonalLoop=1;jettySize=auto;html=1;exitX=0.5;exitY=0.5;exitDx=0;exitDy=0;exitPerimeter=0;entryX=0.5;entryY=1;entryDx=0;entryDy=0;" edge="1" parent="1" source="pPDv9j4kRNzSoTvntn2N-3" target="aV43KR5i9FkxNKnWvNGm-27">
          <mxGeometry relative="1" as="geometry">
            <Array as="points">
              <mxPoint x="-175" y="900" />
              <mxPoint x="740" y="900" />
            </Array>
          </mxGeometry>
        </mxCell>
        <mxCell id="pPDv9j4kRNzSoTvntn2N-3" value="Сотрудник отделения банка" style="shape=umlActor;verticalLabelPosition=bottom;verticalAlign=top;html=1;outlineConnect=0;" parent="1" vertex="1">
          <mxGeometry x="-190" y="870" width="30" height="60" as="geometry" />
        </mxCell>
        <mxCell id="pPDv9j4kRNzSoTvntn2N-4" value="Сотрудник кредитования" style="shape=umlActor;verticalLabelPosition=bottom;verticalAlign=top;html=1;outlineConnect=0;" parent="1" vertex="1">
          <mxGeometry x="425" y="690" width="30" height="60" as="geometry" />
        </mxCell>
        <mxCell id="aV43KR5i9FkxNKnWvNGm-42" style="edgeStyle=orthogonalEdgeStyle;rounded=0;orthogonalLoop=1;jettySize=auto;html=1;exitX=0.5;exitY=0.5;exitDx=0;exitDy=0;exitPerimeter=0;entryX=1;entryY=0.5;entryDx=0;entryDy=0;" edge="1" parent="1" source="pPDv9j4kRNzSoTvntn2N-10" target="pPDv9j4kRNzSoTvntn2N-14">
          <mxGeometry relative="1" as="geometry" />
        </mxCell>
        <mxCell id="aV43KR5i9FkxNKnWvNGm-44" style="edgeStyle=orthogonalEdgeStyle;rounded=0;orthogonalLoop=1;jettySize=auto;html=1;exitX=0.5;exitY=0.5;exitDx=0;exitDy=0;exitPerimeter=0;entryX=0.002;entryY=0.861;entryDx=0;entryDy=0;entryPerimeter=0;" edge="1" parent="1" source="pPDv9j4kRNzSoTvntn2N-10" target="aV43KR5i9FkxNKnWvNGm-27">
          <mxGeometry relative="1" as="geometry">
            <Array as="points" />
          </mxGeometry>
        </mxCell>
        <mxCell id="aV43KR5i9FkxNKnWvNGm-52" style="edgeStyle=orthogonalEdgeStyle;rounded=0;orthogonalLoop=1;jettySize=auto;html=1;exitX=0.5;exitY=0.5;exitDx=0;exitDy=0;exitPerimeter=0;entryX=0.5;entryY=0;entryDx=0;entryDy=0;" edge="1" parent="1" source="pPDv9j4kRNzSoTvntn2N-10" target="pPDv9j4kRNzSoTvntn2N-15">
          <mxGeometry relative="1" as="geometry">
            <Array as="points">
              <mxPoint x="175" y="910" />
            </Array>
          </mxGeometry>
        </mxCell>
        <mxCell id="pPDv9j4kRNzSoTvntn2N-10" value="Сотрудник депозитов" style="shape=umlActor;verticalLabelPosition=bottom;verticalAlign=top;html=1;outlineConnect=0;" parent="1" vertex="1">
          <mxGeometry x="160" y="770" width="30" height="60" as="geometry" />
        </mxCell>
        <mxCell id="pPDv9j4kRNzSoTvntn2N-14" value="Excel" style="rounded=1;whiteSpace=wrap;html=1;fillColor=#fff2cc;strokeColor=#d6b656;" parent="1" vertex="1">
          <mxGeometry x="-130" y="770" width="120" height="60" as="geometry" />
        </mxCell>
        <mxCell id="aV43KR5i9FkxNKnWvNGm-50" style="edgeStyle=orthogonalEdgeStyle;rounded=0;orthogonalLoop=1;jettySize=auto;html=1;exitX=0.5;exitY=1;exitDx=0;exitDy=0;entryX=0.5;entryY=0;entryDx=0;entryDy=0;" edge="1" parent="1" source="pPDv9j4kRNzSoTvntn2N-15" target="aV43KR5i9FkxNKnWvNGm-47">
          <mxGeometry relative="1" as="geometry" />
        </mxCell>
        <mxCell id="pPDv9j4kRNzSoTvntn2N-15" value="SMS-шлюз" style="rounded=1;whiteSpace=wrap;html=1;fillColor=#fff2cc;strokeColor=#d6b656;" parent="1" vertex="1">
          <mxGeometry x="115" y="960" width="120" height="60" as="geometry" />
        </mxCell>
        <mxCell id="aV43KR5i9FkxNKnWvNGm-31" style="edgeStyle=orthogonalEdgeStyle;rounded=0;orthogonalLoop=1;jettySize=auto;html=1;exitX=1;exitY=0.5;exitDx=0;exitDy=0;entryX=0;entryY=0.25;entryDx=0;entryDy=0;" edge="1" parent="1" source="pPDv9j4kRNzSoTvntn2N-16" target="aV43KR5i9FkxNKnWvNGm-27">
          <mxGeometry relative="1" as="geometry" />
        </mxCell>
        <mxCell id="aV43KR5i9FkxNKnWvNGm-55" style="edgeStyle=orthogonalEdgeStyle;rounded=0;orthogonalLoop=1;jettySize=auto;html=1;exitX=0.5;exitY=1;exitDx=0;exitDy=0;entryX=0.5;entryY=0;entryDx=0;entryDy=0;entryPerimeter=0;" edge="1" parent="1" source="pPDv9j4kRNzSoTvntn2N-16" target="pPDv9j4kRNzSoTvntn2N-10">
          <mxGeometry relative="1" as="geometry">
            <Array as="points">
              <mxPoint x="175" y="610" />
            </Array>
          </mxGeometry>
        </mxCell>
        <mxCell id="pPDv9j4kRNzSoTvntn2N-16" value="&lt;span style=&quot;text-align: left;&quot;&gt;Система кол-центра&lt;/span&gt;" style="rounded=1;whiteSpace=wrap;html=1;fillColor=#fff2cc;strokeColor=#d6b656;" parent="1" vertex="1">
          <mxGeometry x="115" y="550" width="120" height="60" as="geometry" />
        </mxCell>
        <mxCell id="aV43KR5i9FkxNKnWvNGm-16" value="Регистрирует&amp;nbsp;&lt;div&gt;обращение&lt;/div&gt;" style="text;html=1;align=center;verticalAlign=middle;resizable=0;points=[];autosize=1;strokeColor=none;fillColor=none;" vertex="1" parent="1">
          <mxGeometry x="-120" y="538" width="100" height="40" as="geometry" />
        </mxCell>
        <mxCell id="aV43KR5i9FkxNKnWvNGm-20" value="Совершает&amp;nbsp;&lt;div&gt;звонок&lt;/div&gt;" style="text;html=1;align=center;verticalAlign=middle;resizable=0;points=[];autosize=1;strokeColor=none;fillColor=none;" vertex="1" parent="1">
          <mxGeometry x="-320" y="538" width="90" height="40" as="geometry" />
        </mxCell>
        <mxCell id="aV43KR5i9FkxNKnWvNGm-22" style="edgeStyle=orthogonalEdgeStyle;rounded=0;orthogonalLoop=1;jettySize=auto;html=1;exitX=0.5;exitY=0.5;exitDx=0;exitDy=0;exitPerimeter=0;entryX=0.5;entryY=0.5;entryDx=0;entryDy=0;entryPerimeter=0;" edge="1" parent="1" source="pPDv9j4kRNzSoTvntn2N-2" target="pPDv9j4kRNzSoTvntn2N-3">
          <mxGeometry relative="1" as="geometry">
            <Array as="points">
              <mxPoint x="-350" y="580" />
              <mxPoint x="-350" y="900" />
            </Array>
          </mxGeometry>
        </mxCell>
        <mxCell id="aV43KR5i9FkxNKnWvNGm-23" value="Заполняет&amp;nbsp;&lt;div&gt;заявку&lt;/div&gt;" style="text;html=1;align=center;verticalAlign=middle;resizable=0;points=[];autosize=1;strokeColor=none;fillColor=none;" vertex="1" parent="1">
          <mxGeometry x="-300" y="860" width="90" height="40" as="geometry" />
        </mxCell>
        <mxCell id="aV43KR5i9FkxNKnWvNGm-33" style="edgeStyle=orthogonalEdgeStyle;rounded=0;orthogonalLoop=1;jettySize=auto;html=1;exitX=0.5;exitY=1;exitDx=0;exitDy=0;entryX=0.5;entryY=0;entryDx=0;entryDy=0;entryPerimeter=0;" edge="1" parent="1" source="aV43KR5i9FkxNKnWvNGm-24" target="pPDv9j4kRNzSoTvntn2N-1">
          <mxGeometry relative="1" as="geometry" />
        </mxCell>
        <mxCell id="aV43KR5i9FkxNKnWvNGm-24" value="&lt;span style=&quot;text-align: left;&quot;&gt;Сайт&lt;/span&gt;" style="rounded=1;whiteSpace=wrap;html=1;fillColor=#fff2cc;strokeColor=#d6b656;" vertex="1" parent="1">
          <mxGeometry x="-235" y="400" width="120" height="60" as="geometry" />
        </mxCell>
        <mxCell id="aV43KR5i9FkxNKnWvNGm-26" value="Заполняет&amp;nbsp;&lt;div&gt;онлайн-форму&lt;/div&gt;" style="text;html=1;align=center;verticalAlign=middle;resizable=0;points=[];autosize=1;strokeColor=none;fillColor=none;" vertex="1" parent="1">
          <mxGeometry x="-345" y="383" width="110" height="40" as="geometry" />
        </mxCell>
        <mxCell id="aV43KR5i9FkxNKnWvNGm-40" style="edgeStyle=orthogonalEdgeStyle;rounded=0;orthogonalLoop=1;jettySize=auto;html=1;exitX=1;exitY=0.5;exitDx=0;exitDy=0;entryX=0;entryY=0.5;entryDx=0;entryDy=0;" edge="1" parent="1" source="aV43KR5i9FkxNKnWvNGm-27" target="aV43KR5i9FkxNKnWvNGm-39">
          <mxGeometry relative="1" as="geometry" />
        </mxCell>
        <mxCell id="aV43KR5i9FkxNKnWvNGm-27" value="АБС" style="rounded=1;whiteSpace=wrap;html=1;fillColor=#fff2cc;strokeColor=#d6b656;" vertex="1" parent="1">
          <mxGeometry x="680" y="490" width="120" height="360" as="geometry" />
        </mxCell>
        <mxCell id="aV43KR5i9FkxNKnWvNGm-30" value="Создает заявку" style="text;html=1;align=center;verticalAlign=middle;resizable=0;points=[];autosize=1;strokeColor=none;fillColor=none;" vertex="1" parent="1">
          <mxGeometry x="560" y="865" width="110" height="30" as="geometry" />
        </mxCell>
        <mxCell id="aV43KR5i9FkxNKnWvNGm-32" value="Передает&amp;nbsp;&lt;span style=&quot;background-color: transparent; color: light-dark(rgb(0, 0, 0), rgb(255, 255, 255));&quot;&gt;данные&lt;/span&gt;" style="text;html=1;align=center;verticalAlign=middle;resizable=0;points=[];autosize=1;strokeColor=none;fillColor=none;" vertex="1" parent="1">
          <mxGeometry x="550" y="543" width="120" height="30" as="geometry" />
        </mxCell>
        <mxCell id="aV43KR5i9FkxNKnWvNGm-34" value="Уведомляет" style="text;html=1;align=center;verticalAlign=middle;resizable=0;points=[];autosize=1;strokeColor=none;fillColor=none;" vertex="1" parent="1">
          <mxGeometry x="-170" y="480" width="90" height="30" as="geometry" />
        </mxCell>
        <mxCell id="aV43KR5i9FkxNKnWvNGm-36" value="&lt;span style=&quot;text-align: left;&quot;&gt;Внешняя система&lt;/span&gt;" style="rounded=1;whiteSpace=wrap;html=1;fillColor=#fff2cc;strokeColor=#d6b656;" vertex="1" parent="1">
          <mxGeometry x="-130" y="670" width="120" height="60" as="geometry" />
        </mxCell>
        <mxCell id="aV43KR5i9FkxNKnWvNGm-38" style="edgeStyle=orthogonalEdgeStyle;rounded=0;orthogonalLoop=1;jettySize=auto;html=1;exitX=0.5;exitY=0.5;exitDx=0;exitDy=0;exitPerimeter=0;entryX=0;entryY=0.5;entryDx=0;entryDy=0;" edge="1" parent="1" source="aV43KR5i9FkxNKnWvNGm-37" target="aV43KR5i9FkxNKnWvNGm-36">
          <mxGeometry relative="1" as="geometry" />
        </mxCell>
        <mxCell id="aV43KR5i9FkxNKnWvNGm-37" value="Оператор&amp;nbsp;&lt;div&gt;парнерского кол-центра&lt;/div&gt;" style="shape=umlActor;verticalLabelPosition=bottom;verticalAlign=top;html=1;outlineConnect=0;" vertex="1" parent="1">
          <mxGeometry x="-290" y="670" width="30" height="60" as="geometry" />
        </mxCell>
        <mxCell id="aV43KR5i9FkxNKnWvNGm-39" value="&lt;div style=&quot;text-align: left;&quot;&gt;&lt;span style=&quot;background-color: transparent; color: light-dark(rgb(0, 0, 0), rgb(255, 255, 255));&quot;&gt;Договоры&lt;/span&gt;&lt;/div&gt;" style="rounded=1;whiteSpace=wrap;html=1;fillColor=#fff2cc;strokeColor=#d6b656;" vertex="1" parent="1">
          <mxGeometry x="880" y="640" width="120" height="60" as="geometry" />
        </mxCell>
        <mxCell id="aV43KR5i9FkxNKnWvNGm-41" value="Хранит" style="text;html=1;align=center;verticalAlign=middle;resizable=0;points=[];autosize=1;strokeColor=none;fillColor=none;" vertex="1" parent="1">
          <mxGeometry x="810" y="640" width="60" height="30" as="geometry" />
        </mxCell>
        <mxCell id="aV43KR5i9FkxNKnWvNGm-43" value="Производит&amp;nbsp;&lt;div&gt;рассчеты&lt;/div&gt;" style="text;html=1;align=center;verticalAlign=middle;resizable=0;points=[];autosize=1;strokeColor=none;fillColor=none;" vertex="1" parent="1">
          <mxGeometry x="10" y="750" width="90" height="40" as="geometry" />
        </mxCell>
        <mxCell id="aV43KR5i9FkxNKnWvNGm-46" value="Вводит ставку" style="text;html=1;align=center;verticalAlign=middle;resizable=0;points=[];autosize=1;strokeColor=none;fillColor=none;" vertex="1" parent="1">
          <mxGeometry x="560" y="770" width="100" height="30" as="geometry" />
        </mxCell>
        <mxCell id="aV43KR5i9FkxNKnWvNGm-48" style="edgeStyle=orthogonalEdgeStyle;rounded=0;orthogonalLoop=1;jettySize=auto;html=1;" edge="1" parent="1" source="aV43KR5i9FkxNKnWvNGm-47" target="pPDv9j4kRNzSoTvntn2N-2">
          <mxGeometry relative="1" as="geometry" />
        </mxCell>
        <mxCell id="aV43KR5i9FkxNKnWvNGm-47" value="Телеком-оператор" style="rounded=1;whiteSpace=wrap;html=1;fillColor=#fff2cc;strokeColor=#d6b656;" vertex="1" parent="1">
          <mxGeometry x="115" y="1070" width="120" height="60" as="geometry" />
        </mxCell>
        <mxCell id="aV43KR5i9FkxNKnWvNGm-49" value="Доставляет сообщение" style="text;html=1;align=center;verticalAlign=middle;resizable=0;points=[];autosize=1;strokeColor=none;fillColor=none;" vertex="1" parent="1">
          <mxGeometry x="-50" y="1060" width="150" height="30" as="geometry" />
        </mxCell>
        <mxCell id="aV43KR5i9FkxNKnWvNGm-51" value="Передает сообщение" style="text;html=1;align=center;verticalAlign=middle;resizable=0;points=[];autosize=1;strokeColor=none;fillColor=none;" vertex="1" parent="1">
          <mxGeometry x="175" y="1030" width="140" height="30" as="geometry" />
        </mxCell>
        <mxCell id="aV43KR5i9FkxNKnWvNGm-53" value="Инициирует&amp;nbsp;&lt;div&gt;отправку&amp;nbsp;&lt;span style=&quot;background-color: transparent; color: light-dark(rgb(0, 0, 0), rgb(255, 255, 255));&quot;&gt;сообщения&lt;/span&gt;&lt;/div&gt;" style="text;html=1;align=center;verticalAlign=middle;resizable=0;points=[];autosize=1;strokeColor=none;fillColor=none;" vertex="1" parent="1">
          <mxGeometry x="175" y="910" width="140" height="40" as="geometry" />
        </mxCell>
        <mxCell id="aV43KR5i9FkxNKnWvNGm-56" value="Запрашивает&amp;nbsp;&lt;div&gt;ставки&lt;/div&gt;" style="text;html=1;align=center;verticalAlign=middle;resizable=0;points=[];autosize=1;strokeColor=none;fillColor=none;" vertex="1" parent="1">
          <mxGeometry x="15" y="820" width="100" height="40" as="geometry" />
        </mxCell>
        <mxCell id="aV43KR5i9FkxNKnWvNGm-58" value="Запрашивает&amp;nbsp;&lt;div&gt;риски&lt;/div&gt;" style="text;html=1;align=center;verticalAlign=middle;resizable=0;points=[];autosize=1;strokeColor=none;fillColor=none;" vertex="1" parent="1">
          <mxGeometry x="315" y="680" width="100" height="40" as="geometry" />
        </mxCell>
        <mxCell id="aV43KR5i9FkxNKnWvNGm-59" style="edgeStyle=orthogonalEdgeStyle;rounded=0;orthogonalLoop=1;jettySize=auto;html=1;entryX=0.25;entryY=0.1;entryDx=0;entryDy=0;entryPerimeter=0;" edge="1" parent="1" source="aV43KR5i9FkxNKnWvNGm-36" target="pPDv9j4kRNzSoTvntn2N-10">
          <mxGeometry relative="1" as="geometry">
            <Array as="points">
              <mxPoint x="140" y="700" />
              <mxPoint x="140" y="776" />
            </Array>
          </mxGeometry>
        </mxCell>
        <mxCell id="aV43KR5i9FkxNKnWvNGm-64" value="Отправляет&amp;nbsp;&lt;div&gt;email&lt;/div&gt;" style="text;html=1;align=center;verticalAlign=middle;resizable=0;points=[];autosize=1;strokeColor=none;fillColor=none;" vertex="1" parent="1">
          <mxGeometry y="655" width="90" height="40" as="geometry" />
        </mxCell>
        <mxCell id="aV43KR5i9FkxNKnWvNGm-66" value="Передает запрос" style="text;html=1;align=center;verticalAlign=middle;resizable=0;points=[];autosize=1;strokeColor=none;fillColor=none;" vertex="1" parent="1">
          <mxGeometry x="-255" y="670" width="120" height="30" as="geometry" />
        </mxCell>
        <mxCell id="aV43KR5i9FkxNKnWvNGm-67" style="edgeStyle=orthogonalEdgeStyle;rounded=0;orthogonalLoop=1;jettySize=auto;html=1;exitX=0.5;exitY=0.5;exitDx=0;exitDy=0;exitPerimeter=0;entryX=0.5;entryY=0.5;entryDx=0;entryDy=0;entryPerimeter=0;" edge="1" parent="1" source="pPDv9j4kRNzSoTvntn2N-10" target="pPDv9j4kRNzSoTvntn2N-4">
          <mxGeometry relative="1" as="geometry">
            <Array as="points">
              <mxPoint x="320" y="800" />
              <mxPoint x="320" y="720" />
              <mxPoint x="345" y="720" />
            </Array>
          </mxGeometry>
        </mxCell>
        <mxCell id="aV43KR5i9FkxNKnWvNGm-68" style="edgeStyle=orthogonalEdgeStyle;rounded=0;orthogonalLoop=1;jettySize=auto;html=1;exitX=0.5;exitY=0.5;exitDx=0;exitDy=0;exitPerimeter=0;entryX=-0.006;entryY=0.637;entryDx=0;entryDy=0;entryPerimeter=0;" edge="1" parent="1" source="pPDv9j4kRNzSoTvntn2N-4" target="aV43KR5i9FkxNKnWvNGm-27">
          <mxGeometry relative="1" as="geometry" />
        </mxCell>
        <mxCell id="aV43KR5i9FkxNKnWvNGm-69" value="Проверяет риски" style="text;html=1;align=center;verticalAlign=middle;resizable=0;points=[];autosize=1;strokeColor=none;fillColor=none;" vertex="1" parent="1">
          <mxGeometry x="550" y="685" width="120" height="30" as="geometry" />
        </mxCell>
        <mxCell id="aV43KR5i9FkxNKnWvNGm-70" style="edgeStyle=orthogonalEdgeStyle;rounded=0;orthogonalLoop=1;jettySize=auto;html=1;exitX=0.5;exitY=0.5;exitDx=0;exitDy=0;exitPerimeter=0;entryX=0;entryY=1;entryDx=0;entryDy=0;entryPerimeter=0;" edge="1" parent="1" source="pPDv9j4kRNzSoTvntn2N-3" target="pPDv9j4kRNzSoTvntn2N-10">
          <mxGeometry relative="1" as="geometry">
            <Array as="points">
              <mxPoint y="900" />
              <mxPoint y="860" />
              <mxPoint x="160" y="860" />
            </Array>
          </mxGeometry>
        </mxCell>
        <mxCell id="aV43KR5i9FkxNKnWvNGm-71" value="Ставит задачу" style="text;html=1;align=center;verticalAlign=middle;resizable=0;points=[];autosize=1;strokeColor=none;fillColor=none;" vertex="1" parent="1">
          <mxGeometry x="175" y="640" width="100" height="30" as="geometry" />
        </mxCell>
      </root>
    </mxGraphModel>
  </diagram>
</mxfile>
